<svg width="current" height="current" viewBox="0 0 14 14" fill="none" xmlns="http://www.w3.org/2000/svg">
<path d="M1.13048 1.1306C1.21176 1.04911 1.30831 0.984463 1.41462 0.940352C1.52092 0.89624 1.63488 0.873535 1.74998 0.873535C1.86507 0.873535 1.97903 0.89624 2.08534 0.940352C2.19164 0.984463 2.2882 1.04911 2.36948 1.1306L6.99998 5.76285L11.6305 1.1306C11.7118 1.04924 11.8084 0.984711 11.9147 0.940683C12.021 0.896654 12.1349 0.873993 12.25 0.873993C12.365 0.873993 12.479 0.896654 12.5852 0.940683C12.6915 0.984711 12.7881 1.04924 12.8695 1.1306C12.9508 1.21195 13.0154 1.30853 13.0594 1.41483C13.1034 1.52112 13.1261 1.63505 13.1261 1.7501C13.1261 1.86515 13.1034 1.97908 13.0594 2.08537C13.0154 2.19166 12.9508 2.28825 12.8695 2.3696L8.23723 7.0001L12.8695 11.6306C12.9508 11.712 13.0154 11.8085 13.0594 11.9148C13.1034 12.0211 13.1261 12.135 13.1261 12.2501C13.1261 12.3652 13.1034 12.4791 13.0594 12.5854C13.0154 12.6917 12.9508 12.7882 12.8695 12.8696C12.7881 12.951 12.6915 13.0155 12.5852 13.0595C12.479 13.1035 12.365 13.1262 12.25 13.1262C12.1349 13.1262 12.021 13.1035 11.9147 13.0595C11.8084 13.0155 11.7118 12.951 11.6305 12.8696L6.99998 8.23735L2.36948 12.8696C2.28812 12.951 2.19154 13.0155 2.08525 13.0595C1.97895 13.1035 1.86503 13.1262 1.74998 13.1262C1.63493 13.1262 1.521 13.1035 1.41471 13.0595C1.30841 13.0155 1.21183 12.951 1.13048 12.8696C1.04912 12.7882 0.984589 12.6917 0.940561 12.5854C0.896532 12.4791 0.873871 12.3652 0.873871 12.2501C0.873871 12.135 0.896532 12.0211 0.940561 11.9148C0.984589 11.8085 1.04912 11.712 1.13048 11.6306L5.76273 7.0001L1.13048 2.3696C1.04899 2.28832 0.984341 2.19176 0.94023 2.08546C0.896118 1.97915 0.873413 1.86519 0.873413 1.7501C0.873413 1.63501 0.896118 1.52104 0.94023 1.41474C0.984341 1.30844 1.04899 1.21188 1.13048 1.1306Z" fill="current"/>
</svg>
