<svg width="17" height="17" viewBox="0 0 17 17" fill="none" xmlns="http://www.w3.org/2000/svg">
<g clip-path="url(#clip0_111_798)">
<path d="M8.50001 1.18066C4.33501 1.18066 0.944458 4.14622 0.944458 7.79177C0.944458 11.4373 4.33501 14.4029 8.50001 14.4029C9.27925 14.402 10.0547 14.2939 10.8045 14.0818L13.4158 15.744C13.4871 15.7897 13.5694 15.8155 13.6541 15.8185C13.7387 15.8215 13.8226 15.8017 13.897 15.7611C13.9713 15.7205 14.0334 15.6607 14.0767 15.5879C14.12 15.5151 14.1429 15.432 14.1431 15.3473V12.1693C14.7339 11.6025 15.2054 10.9232 15.5298 10.1714C15.8542 9.4196 16.0249 8.61053 16.032 7.79177C16.0556 4.14622 12.665 1.18066 8.50001 1.18066ZM12.2778 7.79177C12.2778 7.91702 12.228 8.03713 12.1395 8.12569C12.0509 8.21425 11.9308 8.264 11.8056 8.264H5.19446C5.06922 8.264 4.94911 8.21425 4.86055 8.12569C4.77199 8.03713 4.72224 7.91702 4.72224 7.79177C4.72224 7.66653 4.77199 7.54642 4.86055 7.45786C4.94911 7.3693 5.06922 7.31955 5.19446 7.31955H11.8056C11.9308 7.31955 12.0509 7.3693 12.1395 7.45786C12.228 7.54642 12.2778 7.66653 12.2778 7.79177ZM10.7431 10.1529C10.7431 10.2781 10.6933 10.3982 10.6048 10.4868C10.5162 10.5754 10.3961 10.6251 10.2708 10.6251H6.72918C6.60394 10.6251 6.48383 10.5754 6.39527 10.4868C6.30671 10.3982 6.25696 10.2781 6.25696 10.1529C6.25696 10.0276 6.30671 9.90753 6.39527 9.81897C6.48383 9.73042 6.60394 9.68066 6.72918 9.68066H10.2708C10.3961 9.68066 10.5162 9.73042 10.6048 9.81897C10.6933 9.90753 10.7431 10.0276 10.7431 10.1529ZM4.85446 5.43066C4.85446 5.30542 4.90421 5.18531 4.99277 5.09675C5.08133 5.00819 5.20144 4.95844 5.32668 4.95844H11.6733C11.7986 4.95844 11.9187 5.00819 12.0073 5.09675C12.0958 5.18531 12.1456 5.30542 12.1456 5.43066C12.1456 5.5559 12.0958 5.67602 12.0073 5.76458C11.9187 5.85313 11.7986 5.90289 11.6733 5.90289H5.32668C5.20144 5.90289 5.08133 5.85313 4.99277 5.76458C4.90421 5.67602 4.85446 5.5559 4.85446 5.43066Z" fill="#C9CACA"/>
</g>
<defs>
<clipPath id="clip0_111_798">
<rect width="17" height="17" fill="white"/>
</clipPath>
</defs>
</svg>
