<svg width="20" height="20" viewBox="0 0 20 20" fill="none" xmlns="http://www.w3.org/2000/svg">
<g clip-path="url(#clip0_162_2411)">
<path fill-rule="evenodd" clip-rule="evenodd" d="M10.0002 0.833496C4.93766 0.833496 0.833496 4.93766 0.833496 10.0002C0.833496 15.0627 4.93766 19.1668 10.0002 19.1668C15.0627 19.1668 19.1668 15.0627 19.1668 10.0002C19.1668 4.93766 15.0627 0.833496 10.0002 0.833496ZM13.0893 8.08933C13.2411 7.93216 13.3251 7.72166 13.3232 7.50316C13.3213 7.28467 13.2337 7.07565 13.0792 6.92115C12.9247 6.76664 12.7157 6.679 12.4972 6.6771C12.2787 6.6752 12.0682 6.7592 11.911 6.911L10.0002 8.82183L8.08933 6.911C8.01246 6.8314 7.9205 6.76792 7.81883 6.72425C7.71716 6.68057 7.60781 6.65758 7.49716 6.65662C7.38651 6.65566 7.27678 6.67674 7.17437 6.71865C7.07195 6.76055 6.97891 6.82242 6.90067 6.90067C6.82242 6.97891 6.76055 7.07195 6.71865 7.17437C6.67674 7.27678 6.65566 7.38651 6.65662 7.49716C6.65758 7.60781 6.68057 7.71716 6.72425 7.81883C6.76792 7.9205 6.8314 8.01246 6.911 8.08933L8.82183 10.0002L6.911 11.911C6.8314 11.9879 6.76792 12.0798 6.72425 12.1815C6.68057 12.2832 6.65758 12.3925 6.65662 12.5032C6.65566 12.6138 6.67674 12.7235 6.71865 12.826C6.76055 12.9284 6.82242 13.0214 6.90067 13.0997C6.97891 13.1779 7.07195 13.2398 7.17437 13.2817C7.27678 13.3236 7.38651 13.3447 7.49716 13.3437C7.60781 13.3427 7.71716 13.3198 7.81883 13.2761C7.9205 13.2324 8.01246 13.1689 8.08933 13.0893L10.0002 11.1785L11.911 13.0893C12.0682 13.2411 12.2787 13.3251 12.4972 13.3232C12.7157 13.3213 12.9247 13.2337 13.0792 13.0792C13.2337 12.9247 13.3213 12.7157 13.3232 12.4972C13.3251 12.2787 13.2411 12.0682 13.0893 11.911L11.1785 10.0002L13.0893 8.08933Z" fill="black"/>
</g>
<defs>
<clipPath id="clip0_162_2411">
<rect width="20" height="20" fill="white"/>
</clipPath>
</defs>
</svg>
