<svg width="24" height="24" viewBox="0 0 24 24" fill="none" xmlns="http://www.w3.org/2000/svg">
<path d="M21 20V12.174C21.0001 11.6296 20.889 11.0908 20.6735 10.5908C20.458 10.0907 20.1428 9.63995 19.747 9.26603L12.374 2.29803C12.0027 1.94696 11.511 1.75134 11 1.75134C10.489 1.75134 9.99734 1.94696 9.626 2.29803L2.253 9.26603C1.85722 9.63995 1.54195 10.0907 1.3265 10.5908C1.11104 11.0908 0.999942 11.6296 1 12.174V20C1 20.5305 1.21071 21.0392 1.58579 21.4142C1.96086 21.7893 2.46957 22 3 22H19C19.5304 22 20.0391 21.7893 20.4142 21.4142C20.7893 21.0392 21 20.5305 21 20Z" stroke="black" stroke-width="2" stroke-linecap="round" stroke-linejoin="round"/>
</svg>
