<svg width="14" height="14" viewBox="0 0 14 14" fill="none" xmlns="http://www.w3.org/2000/svg">
<path d="M7.00547 3.5C6.57282 3.5 6.14989 3.62829 5.79016 3.86866C5.43043 4.10903 5.15005 4.45067 4.98448 4.85038C4.81892 5.25009 4.7756 5.68993 4.86 6.11426C4.94441 6.53859 5.15275 6.92837 5.45867 7.2343C5.7646 7.54022 6.15437 7.74856 6.57871 7.83297C7.00304 7.91737 7.44287 7.87405 7.84259 7.70849C8.2423 7.54292 8.58394 7.26254 8.82431 6.90281C9.06467 6.54308 9.19297 6.12015 9.19297 5.6875C9.19152 5.10778 8.96059 4.55222 8.55067 4.1423C8.14075 3.73238 7.58519 3.50144 7.00547 3.5ZM7.00547 7C6.74588 7 6.49212 6.92302 6.27628 6.7788C6.06044 6.63458 5.89222 6.4296 5.79288 6.18977C5.69354 5.94994 5.66754 5.68604 5.71819 5.43144C5.76883 5.17684 5.89383 4.94298 6.07739 4.75942C6.26095 4.57587 6.49481 4.45086 6.74941 4.40022C7.00401 4.34958 7.26791 4.37557 7.50774 4.47491C7.74757 4.57425 7.95255 4.74247 8.09677 4.95831C8.24099 5.17415 8.31797 5.42791 8.31797 5.6875C8.31653 6.03515 8.17779 6.36816 7.93196 6.61399C7.68613 6.85982 7.35312 6.99856 7.00547 7ZM7.00547 0.875C5.72956 0.876447 4.50632 1.38394 3.60412 2.28615C2.70191 3.18835 2.19442 4.41159 2.19297 5.6875C2.19297 7.40469 2.98594 9.22578 4.48984 10.9484C5.16587 11.7287 5.92505 12.4329 6.75391 13.0484C6.82842 13.0981 6.91595 13.1245 7.00547 13.1245C7.09499 13.1245 7.18251 13.0981 7.25703 13.0484C8.0883 12.4338 8.8494 11.7296 9.52656 10.9484C11.025 9.22578 11.818 7.40469 11.818 5.6875C11.8165 4.41159 11.309 3.18835 10.4068 2.28615C9.50462 1.38394 8.28138 0.876447 7.00547 0.875ZM7.00547 12.1406C6.10313 11.4297 3.06797 8.81562 3.06797 5.6875C3.06797 4.64321 3.48281 3.64169 4.22124 2.90327C4.95966 2.16484 5.96118 1.75 7.00547 1.75C8.04976 1.75 9.05128 2.16484 9.7897 2.90327C10.5281 3.64169 10.943 4.64321 10.943 5.6875C10.943 8.81562 7.90781 11.4297 7.00547 12.1406Z" fill="black"/>
</svg>
