<svg width="118" height="125" viewBox="0 0 118 125" fill="none" xmlns="http://www.w3.org/2000/svg">
<g filter="url(#filter0_d_103_146)">
<path d="M36.5425 92.4447H24.9649V100.446H40.5049V104.359H4V100.446H20.3129V92.4447H8.85463V74.0852H35.936V77.924H13.3842V88.6108H36.5428V92.4447H36.5425Z" fill="#5F52F3"/>
<path d="M60.1746 117V104.359H44.2588V100.446H80.7742V104.359H64.8265V117H60.1746ZM76.3277 97.8301C71.7588 95.9132 67.1905 93.2625 62.4936 89.9967C57.8095 93.2622 53.2383 95.9132 48.6688 97.8301L46.5897 94.6508C51.0802 92.5709 55.1581 89.997 58.6186 87.2201C59.5603 86.4494 60.1746 85.4314 60.1746 84.1595V80.407H64.8265V84.1595C64.8265 85.4317 65.4356 86.4494 66.3741 87.2201C69.8456 89.997 73.9209 92.5709 78.4102 94.6508L76.3277 97.8301Z" fill="#5F52F3"/>
<path d="M84.1809 88.4477H98.6603V81.2272H84.1809V77.4327H103.186V92.1583H88.7058V100.562H93.5607C98.2559 100.562 102.896 100.281 107.429 99.4607V103.171C103.025 104.026 98.2559 104.359 93.5607 104.359H84.1809V88.4477ZM109.465 112.395V75.4761H114V112.395H109.465V112.395Z" fill="#5F52F3"/>
<path d="M34.5361 16.8997C34.5361 21.4267 38.188 25.0852 42.7106 25.0852H53.6206L61.3156 32.7825C61.6471 33.1213 62.0937 33.2831 62.5274 33.2831C62.961 33.2831 63.4005 33.1213 63.7287 32.7825L71.4339 25.0852H82.3399C86.859 25.0852 90.5183 21.4264 90.5183 16.8997V8.17565C90.5183 5.924 89.6018 3.87966 88.1295 2.39989C86.1304 0.903034 83.6504 0 80.9619 0H44.0917C41.3957 0 38.9172 0.903033 36.9186 2.4051C35.4457 3.88458 34.5361 5.92661 34.5361 8.17594V16.8997Z" fill="url(#paint0_linear_103_146)"/>
<path d="M71.4336 52.5914H82.3396C86.8587 52.5914 90.5181 48.9242 90.5181 44.4108V35.683C90.5181 31.1649 86.8587 27.501 82.3396 27.501H72.4306L65.4355 34.4971C64.6565 35.273 63.6179 35.7027 62.5271 35.7027C61.4302 35.7027 60.3968 35.273 59.6108 34.4971L52.6164 27.501H42.7106C38.188 27.501 34.5361 31.1646 34.5361 35.683V44.4108C34.5361 48.9242 38.188 52.5914 42.7106 52.5914H53.6206L61.3156 60.2832C61.6471 60.6217 62.0937 60.7922 62.5274 60.7922C62.961 60.7922 63.4005 60.6217 63.7287 60.2832L71.4336 52.5914Z" fill="url(#paint1_linear_103_146)"/>
</g>
<defs>
<filter id="filter0_d_103_146" x="0" y="0" width="118" height="125" filterUnits="userSpaceOnUse" color-interpolation-filters="sRGB">
<feFlood flood-opacity="0" result="BackgroundImageFix"/>
<feColorMatrix in="SourceAlpha" type="matrix" values="0 0 0 0 0 0 0 0 0 0 0 0 0 0 0 0 0 0 127 0" result="hardAlpha"/>
<feOffset dy="4"/>
<feGaussianBlur stdDeviation="2"/>
<feComposite in2="hardAlpha" operator="out"/>
<feColorMatrix type="matrix" values="0 0 0 0 0 0 0 0 0 0 0 0 0 0 0 0 0 0 0.25 0"/>
<feBlend mode="normal" in2="BackgroundImageFix" result="effect1_dropShadow_103_146"/>
<feBlend mode="normal" in="SourceGraphic" in2="effect1_dropShadow_103_146" result="shape"/>
</filter>
<linearGradient id="paint0_linear_103_146" x1="62.527" y1="8.6858e-05" x2="62.527" y2="60.7904" gradientUnits="userSpaceOnUse">
<stop stop-color="#5F52F3"/>
<stop offset="1" stop-color="#3D3DC1"/>
</linearGradient>
<linearGradient id="paint1_linear_103_146" x1="62.527" y1="-0.0056958" x2="62.527" y2="60.7923" gradientUnits="userSpaceOnUse">
<stop stop-color="#5F52F3"/>
<stop offset="1" stop-color="#3D3DC1"/>
</linearGradient>
</defs>
</svg>
