<svg width="current" height="current" viewBox="0 0 118 140" fill="none" xmlns="http://www.w3.org/2000/svg">
<g filter="url(#filter0_d_103_255)">
<path d="M36.5425 92.2646H24.9649V100.251H40.5049V104.156H4V100.251H20.3129V92.2646H8.85463V73.9409H35.936V77.7723H13.3842V88.4382H36.5428V92.2646H36.5425Z" fill="#5F52F3"/>
<path d="M60.1744 116.772V104.156H44.2587V100.251H80.774V104.156H64.8264V116.772H60.1744ZM76.3276 97.6395C71.7587 95.7263 67.1903 93.0809 62.4935 89.8214C57.8094 93.0806 53.2381 95.7263 48.6686 97.6395L46.5896 94.4664C51.08 92.3905 55.158 89.8217 58.6185 87.0502C59.5601 86.281 60.1744 85.265 60.1744 83.9956V80.2504H64.8264V83.9956C64.8264 85.2653 65.4355 86.281 66.374 87.0502C69.8455 89.8217 73.9208 92.3905 78.4101 94.4664L76.3276 97.6395Z" fill="#5F52F3"/>
<path d="M84.1809 88.2755H98.6603V81.069H84.1809V77.2819H103.186V91.9788H88.7058V100.367H93.5607C98.2559 100.367 102.896 100.085 107.429 99.267V102.97C103.025 103.823 98.2559 104.156 93.5607 104.156H84.1809V88.2755ZM109.465 112.176V75.3291H114V112.176H109.465V112.176Z" fill="#5F52F3"/>
<path d="M34.5361 16.8667C34.5361 21.385 38.188 25.0363 42.7105 25.0363H53.6206L61.3156 32.7186C61.6471 33.0567 62.0937 33.2183 62.5274 33.2183C62.961 33.2183 63.4005 33.0567 63.7287 32.7186L71.4339 25.0363H82.3399C86.859 25.0363 90.5183 21.3847 90.5183 16.8667V8.15972C90.5183 5.91246 89.6018 3.8721 88.1295 2.39521C86.1303 0.901274 83.6503 0 80.9619 0H44.0917C41.3957 0 38.9172 0.901273 36.9186 2.40041C35.4457 3.87701 34.5361 5.91506 34.5361 8.16001V16.8667Z" fill="url(#paint0_linear_103_255)"/>
<path d="M71.4336 52.4889H82.3396C86.8587 52.4889 90.518 48.8289 90.518 44.3242V35.6135C90.518 31.1042 86.8587 27.4474 82.3396 27.4474H72.4306L65.4355 34.4299C64.6565 35.2043 63.6179 35.6331 62.5271 35.6331C61.4302 35.6331 60.3968 35.2043 59.6108 34.4299L52.6164 27.4474H42.7105C38.188 27.4474 34.5361 31.1039 34.5361 35.6135V44.3242C34.5361 48.8289 38.188 52.4889 42.7105 52.4889H53.6206L61.3156 60.1657C61.6471 60.5035 62.0937 60.6737 62.5274 60.6737C62.961 60.6737 63.4005 60.5035 63.7287 60.1657L71.4336 52.4889Z" fill="url(#paint1_linear_103_255)"/>
</g>
<path d="M15.3587 134.059H11.3069V136.776H16.7395V138.126H4V136.776H9.68614V134.059H5.68864V127.793H15.1459V129.098H7.26863V132.749H15.3587V134.059Z" fill="#5F52F3"/>
<path d="M28.6957 133.182C27.1066 132.527 25.5131 131.62 23.8742 130.509C22.2354 131.62 20.6418 132.527 19.0483 133.182L18.3194 132.094C19.8858 131.39 21.3164 130.509 22.5206 129.558C22.8466 129.301 23.0548 128.956 23.0548 128.514V127.23H24.6801V128.514C24.6801 128.956 24.9064 129.301 25.2279 129.558C26.4366 130.509 27.8672 131.39 29.4246 132.094L28.6957 133.182ZM23.0548 139.727V135.408H17.5135V134.063H30.253V135.408H24.6801V139.727H23.0548Z" fill="#5F52F3"/>
<path d="M40.7918 127.121H42.3763V139.725H40.7918V127.121ZM36.3778 130.002V131.68C36.3778 132.215 36.5227 132.724 36.7581 133.069C37.6409 134.321 38.655 135.335 39.7551 136.308L38.7727 137.269C37.6001 136.322 36.6042 135.419 35.5674 134.193C34.6348 135.406 33.5845 136.441 32.3531 137.393L31.3074 136.463C32.5614 135.419 33.5302 134.375 34.4175 133.069C34.6801 132.662 34.7571 132.215 34.7571 131.68V130.002H31.8235V128.701H34.7571V127.121H36.3778V128.701H39.3114V130.002H36.3778Z" fill="#5F52F3"/>
<path d="M49.5655 136.853H52.3859V134.892H49.5655V136.853ZM53.9795 134.888V136.853H57.2843V138.185H44.5358V136.853H47.9629V134.888H46.238V130.604H53.993V128.989H46.238V127.684H55.5731V131.883H47.8089V133.578H55.8537V134.888H53.9795Z" fill="#5F52F3"/>
<path d="M71.871 127.121H73.451V139.725H71.871V127.121ZM63.043 131.547H68.1044V129.095H63.043V127.794H69.6844V132.817H64.623V135.68H66.3207C67.9595 135.68 69.5802 135.583 71.1602 135.308V136.578C69.6255 136.87 67.9595 136.981 66.3207 136.981H63.043V131.547Z" fill="#5F52F3"/>
<path d="M77.9108 139.595V136.174H85.3943V135.307H77.9108V134.059H86.9697V137.391H79.4908V138.343H87.2504V139.595H77.9108ZM79.7081 128.549C78.6035 128.549 77.6618 129.173 77.6618 130.227C77.6618 131.289 78.6035 131.913 79.7081 131.913C80.8263 131.913 81.7635 131.289 81.7635 130.227C81.7635 129.173 80.8263 128.549 79.7081 128.549ZM85.3943 133.572V130.899H83.262C82.9269 132.293 81.5009 133.227 79.7081 133.227C77.6301 133.227 76.0592 131.979 76.0592 130.227C76.0592 128.479 77.6301 127.231 79.7081 127.231C81.4873 127.231 82.8862 128.142 83.2484 129.51H85.3943V127.125H86.9697V133.572H85.3943Z" fill="#5F52F3"/>
<path d="M95.5914 129.279H95.4012C94.2151 129.31 93.1376 129.939 93.1376 131.107C93.1376 132.32 94.274 132.952 95.4963 132.952C96.7232 132.952 97.8595 132.32 97.8595 131.107C97.8595 129.939 96.7775 129.31 95.5914 129.279ZM95.4963 134.262C93.278 134.262 91.5531 132.939 91.5531 131.169C91.5531 130.399 91.87 129.757 92.4223 129.279H90.2267V128.005H94.6905V126.753H96.3112V128.005H100.78V129.279H98.5748C99.1135 129.757 99.4395 130.399 99.4395 131.169C99.4395 132.939 97.7191 134.262 95.4963 134.262ZM94.6905 139.723V136.236H89.1401V134.904H101.88V136.236H96.3112V139.723H94.6905Z" fill="#5F52F3"/>
<path d="M112.416 127.121H114V139.725H112.416V127.121ZM103.646 137.486L102.718 136.441C106.041 134.53 108.047 132.091 108.518 129.197H103.447V127.861H110.342C110.184 132.206 107.218 135.627 103.646 137.486Z" fill="#5F52F3"/>
<defs>
<filter id="filter0_d_103_255" x="0" y="0" width="118" height="124.772" filterUnits="userSpaceOnUse" color-interpolation-filters="sRGB">
<feFlood flood-opacity="0" result="BackgroundImageFix"/>
<feColorMatrix in="SourceAlpha" type="matrix" values="0 0 0 0 0 0 0 0 0 0 0 0 0 0 0 0 0 0 127 0" result="hardAlpha"/>
<feOffset dy="4"/>
<feGaussianBlur stdDeviation="2"/>
<feComposite in2="hardAlpha" operator="out"/>
<feColorMatrix type="matrix" values="0 0 0 0 0 0 0 0 0 0 0 0 0 0 0 0 0 0 0.25 0"/>
<feBlend mode="normal" in2="BackgroundImageFix" result="effect1_dropShadow_103_255"/>
<feBlend mode="normal" in="SourceGraphic" in2="effect1_dropShadow_103_255" result="shape"/>
</filter>
<linearGradient id="paint0_linear_103_255" x1="62.527" y1="8.66887e-05" x2="62.527" y2="60.6719" gradientUnits="userSpaceOnUse">
<stop stop-color="#5F52F3"/>
<stop offset="1" stop-color="#3D3DC1"/>
</linearGradient>
<linearGradient id="paint1_linear_103_255" x1="62.527" y1="-0.00569024" x2="62.527" y2="60.6738" gradientUnits="userSpaceOnUse">
<stop stop-color="#5F52F3"/>
<stop offset="1" stop-color="#3D3DC1"/>
</linearGradient>
</defs>
</svg>
