<svg width="current" height="current" viewBox="0 0 120 32" fill="none" xmlns="http://www.w3.org/2000/svg">
<path d="M62.2884 13.9556H53.6587V19.8329H65.2388V22.708H38.0376V19.8329H50.1956V13.9556H41.6545V0.466553H61.8339V3.28353H45.0321V11.1365H62.2884V13.9556Z" fill="#5F52F3"/>
<path d="M79.8942 31.995V22.708H68.0453V19.833H95.2434V22.708H83.3605V31.995H79.8942ZM91.9307 17.9124C88.5267 16.5012 85.1275 14.5545 81.6262 12.1566C78.1358 14.5543 74.7255 16.5012 71.3272 17.9124L69.7748 15.5726C73.1179 14.0426 76.1565 12.1566 78.7432 10.1201C79.4397 9.54467 79.8944 8.79969 79.8944 7.86857V5.11328H83.3607V7.86857C83.3607 8.79969 83.8152 9.54467 84.5147 10.1201C87.1014 12.1566 90.1402 14.0424 93.4822 15.5726L91.9307 17.9124Z" fill="#5F52F3"/>
<path d="M97.7853 11.0167H108.574V5.71288H97.7853V2.92228H111.949V13.7428H101.155V19.9169H104.769C108.27 19.9169 111.734 19.7074 115.105 19.1083V21.8372C111.825 22.4661 108.27 22.7075 104.769 22.7075H97.7853V11.0167ZM116.623 28.6101V1.48486H120V28.6104H116.623V28.6101Z" fill="#5F52F3"/>
<path d="M0 8.89767C0 11.2764 1.94713 13.2076 4.3619 13.2076H10.1837L14.2956 17.2599C14.4733 17.435 14.7097 17.5203 14.9407 17.5203C15.1722 17.5203 15.4086 17.4352 15.5807 17.2599L19.6954 13.2076H25.5172C27.9346 13.2076 29.8817 11.2764 29.8817 8.89767V4.30184C29.8817 3.11587 29.3977 2.04221 28.6095 1.26256C27.542 0.472049 26.2189 0 24.7832 0H5.10391C3.66238 0 2.33971 0.472047 1.2666 1.26511C0.486837 2.04476 0 3.11565 0 4.30162V8.89767Z" fill="url(#paint0_linear_103_145)"/>
<path d="M19.6954 27.6828H25.5172C27.9346 27.6828 29.8817 25.7542 29.8817 23.3784V18.7801C29.8817 16.406 27.9346 14.4757 25.5172 14.4757H20.2278L16.4953 18.1619C16.0783 18.5675 15.5268 18.7926 14.9405 18.7926C14.3542 18.7926 13.8059 18.5675 13.3862 18.1619L9.6483 14.4755H4.3619C1.94735 14.4755 0 16.4058 0 18.7799V23.3782C0 25.754 1.94713 27.6826 4.3619 27.6826H10.1837L14.2956 31.7349C14.4733 31.9128 14.7097 32 14.9407 32C15.1722 32 15.4086 31.9128 15.5807 31.7349L19.6954 27.6828Z" fill="url(#paint1_linear_103_145)"/>
<defs>
<linearGradient id="paint0_linear_103_145" x1="14.9408" y1="2.12731e-05" x2="14.9408" y2="32.0001" gradientUnits="userSpaceOnUse">
<stop stop-color="#5F52F3"/>
<stop offset="1" stop-color="#3D3DC1"/>
</linearGradient>
<linearGradient id="paint1_linear_103_145" x1="14.9408" y1="-0.00444873" x2="14.9408" y2="32.0003" gradientUnits="userSpaceOnUse">
<stop stop-color="#5F52F3"/>
<stop offset="1" stop-color="#3D3DC1"/>
</linearGradient>
</defs>
</svg>
