<svg width="17" height="16" viewBox="0 0 17 16" fill="none" xmlns="http://www.w3.org/2000/svg">
<path d="M16.2883 2.00524C16.2321 1.9614 16.1667 1.93094 16.0969 1.91618C16.0272 1.90143 15.9551 1.90276 15.8859 1.92009L11.0547 3.1279L6.21094 0.706022C6.11078 0.656065 5.99605 0.643595 5.8875 0.670866L0.8875 1.92087C0.786003 1.94596 0.695809 2.00426 0.631258 2.08651C0.566707 2.16875 0.531505 2.27022 0.53125 2.37477V13.6248C0.531246 13.696 0.547493 13.7664 0.578756 13.8304C0.610019 13.8945 0.655475 13.9505 0.711667 13.9944C0.767859 14.0382 0.833307 14.0687 0.903035 14.0834C0.972763 14.0982 1.04493 14.0968 1.11406 14.0795L5.94531 12.8716L10.7891 15.2935C10.8892 15.3435 11.0039 15.356 11.1125 15.3287L16.1125 14.0787C16.214 14.0536 16.3042 13.9953 16.3687 13.913C16.4333 13.8308 16.4685 13.7293 16.4688 13.6248V2.37477C16.4687 2.30351 16.4525 2.23319 16.4212 2.16916C16.3899 2.10513 16.3445 2.04907 16.2883 2.00524ZM6.46875 1.88337L10.5312 3.91462V14.1162L6.46875 12.0849V1.88337ZM1.46875 2.74274L5.53125 1.72712V12.0091L1.46875 13.0248V2.74274ZM15.5312 13.2591L11.4688 14.2748V3.9904L15.5312 2.97477V13.2591Z" fill="white"/>
</svg>
