<svg width="16" height="16" viewBox="0 0 16 16" fill="none" xmlns="http://www.w3.org/2000/svg">
<g clip-path="url(#clip0_112_984)">
<path d="M11.3123 1.31306L6.1103 6.515C3.93358 8.69719 2.28518 11.3486 1.29137 14.2662C1.24397 14.4042 1.23642 14.5528 1.26959 14.6949C1.30275 14.837 1.37528 14.9669 1.47887 15.0696L1.48158 15.0723C1.55367 15.145 1.6394 15.2026 1.73385 15.242C1.8283 15.2814 1.9296 15.3017 2.03193 15.3018C2.11803 15.3017 2.20355 15.2875 2.28505 15.2598C5.20267 14.266 7.85412 12.6176 10.0363 10.4408L15.2381 5.2389C15.7587 4.71831 16.0512 4.01223 16.0512 3.27599C16.0512 2.53976 15.7587 1.83367 15.2381 1.31307C14.9803 1.0553 14.6743 0.85082 14.3375 0.711313C14.0007 0.571806 13.6397 0.500001 13.2752 0.5C12.539 0.499997 11.8329 0.792463 11.3123 1.31306ZM9.32905 9.73371C7.3629 11.6947 4.99479 13.2059 2.38805 14.1631C3.34521 11.5564 4.8564 9.18825 6.8174 7.22209L9.91621 4.12331L12.4278 6.63493L9.32905 9.73371ZM14.531 4.53181L13.1349 5.92784L10.6233 3.41621L12.0194 2.02015C12.1842 1.85484 12.38 1.72365 12.5956 1.63408C12.8112 1.54451 13.0423 1.49832 13.2757 1.49815C13.5092 1.49798 13.7404 1.54384 13.9561 1.6331C14.1718 1.72236 14.3678 1.85327 14.5328 2.01834C14.6979 2.18341 14.8288 2.3794 14.9181 2.59511C15.0073 2.81082 15.0532 3.04201 15.053 3.27546C15.0528 3.5089 15.0066 3.74002 14.9171 3.9556C14.8275 4.17118 14.6963 4.36698 14.531 4.53181Z" fill="white"/>
</g>
<defs>
<clipPath id="clip0_112_984">
<rect width="16" height="16" fill="white" transform="translate(0.5)"/>
</clipPath>
</defs>
</svg>
