
<svg width="21" height="23" viewBox="0 0 21 23" fill="none" xmlns="http://www.w3.org/2000/svg">
<path d="M10.1711 11.5C13.0706 11.5 15.4211 9.14949 15.4211 6.25C15.4211 3.3505 13.0706 1 10.1711 1C7.27165 1 4.92114 3.3505 4.92114 6.25C4.92114 9.14949 7.27165 11.5 10.1711 11.5Z" stroke="#3D3DC1" stroke-width="2"/>
<path d="M15.4212 13.6H15.7908C16.5584 13.6002 17.2995 13.8807 17.8749 14.3888C18.4503 14.8969 18.8204 15.5977 18.9156 16.3594L19.3261 19.6396C19.363 19.9351 19.3367 20.2351 19.2488 20.5196C19.161 20.8041 19.0136 21.0667 18.8165 21.29C18.6194 21.5132 18.377 21.6919 18.1055 21.8144C17.8341 21.9368 17.5397 22 17.2419 22H3.10046C2.80266 22 2.50825 21.9368 2.23678 21.8144C1.9653 21.6919 1.72296 21.5132 1.52585 21.29C1.32874 21.0667 1.18136 20.8041 1.09349 20.5196C1.00562 20.2351 0.97928 19.9351 1.01621 19.6396L1.42571 16.3594C1.52094 15.5973 1.89129 14.8963 2.46713 14.3881C3.04297 13.88 3.78461 13.5997 4.55261 13.6H4.92116" stroke="#3D3DC1" stroke-width="2" stroke-linecap="round" stroke-linejoin="round"/>
</svg>
