<svg width="15" height="14" viewBox="0 0 15 14" fill="none" xmlns="http://www.w3.org/2000/svg">
<path d="M12.2083 2.29157C11.5099 1.5868 10.662 1.04792 9.72734 0.714733C8.79269 0.381547 7.79514 0.262566 6.80834 0.366575C3.75001 0.674908 1.23334 3.15824 0.891674 6.21658C0.433341 10.2582 3.55834 13.6666 7.50001 13.6666C8.75843 13.6666 9.99102 13.3095 11.0546 12.6369C12.1181 11.9642 12.969 11.0036 13.5083 9.86657C13.775 9.30824 13.375 8.66658 12.7583 8.66658C12.45 8.66658 12.1583 8.83324 12.025 9.10824C11.5412 10.1491 10.7136 10.9916 9.68161 11.4939C8.64957 11.9963 7.47601 12.1279 6.35834 11.8666C4.50834 11.4582 3.01667 9.94991 2.62501 8.09991C2.46037 7.36846 2.46227 6.60935 2.63059 5.87874C2.7989 5.14813 3.12931 4.4647 3.59738 3.87901C4.06546 3.29332 4.65921 2.82035 5.33473 2.49509C6.01025 2.16983 6.75026 2.0006 7.50001 1.99991C8.88334 1.99991 10.1167 2.57491 11.0167 3.48324L9.75834 4.74157C9.23334 5.26657 9.60001 6.16657 10.3417 6.16657H13.3333C13.7917 6.16657 14.1667 5.79157 14.1667 5.33324V2.34157C14.1667 1.59991 13.2667 1.22491 12.7417 1.74991L12.2083 2.29157Z" fill="black"/>
</svg>
