<svg width="current" height="current" viewBox="0 0 24 24" fill="none" xmlns="http://www.w3.org/2000/svg">
<path d="M14.079 1.5C14.2378 1.50001 14.3925 1.55041 14.5208 1.64394C14.6491 1.73748 14.7444 1.86933 14.793 2.0205L15.618 4.584C15.9645 4.7535 16.296 4.944 16.6125 5.1585L19.2465 4.5915C19.4018 4.55834 19.5636 4.57534 19.7086 4.64003C19.8537 4.70473 19.9744 4.81379 20.0535 4.9515L22.1325 8.55C22.2119 8.68763 22.2455 8.84693 22.2285 9.0049C22.2115 9.16288 22.1448 9.31139 22.038 9.429L20.2305 11.424C20.2568 11.8065 20.2568 12.1905 20.2305 12.573L22.038 14.571C22.1448 14.6886 22.2115 14.8371 22.2285 14.9951C22.2455 15.1531 22.2119 15.3124 22.1325 15.45L20.0535 19.05C19.9742 19.1874 19.8533 19.2962 19.7083 19.3606C19.5633 19.425 19.4016 19.4418 19.2465 19.4085L16.6125 18.8415C16.2975 19.0545 15.9645 19.2465 15.6195 19.416L14.793 21.9795C14.7444 22.1307 14.6491 22.2625 14.5208 22.3561C14.3925 22.4496 14.2378 22.5 14.079 22.5H9.92098C9.76219 22.5 9.6075 22.4496 9.47919 22.3561C9.35088 22.2625 9.25557 22.1307 9.20698 21.9795L8.38348 19.4175C8.03791 19.2485 7.70459 19.0555 7.38598 18.84L4.75348 19.4085C4.59818 19.4417 4.43636 19.4247 4.29133 19.36C4.1463 19.2953 4.02556 19.1862 3.94648 19.0485L1.86748 15.45C1.78809 15.3124 1.75446 15.1531 1.77145 14.9951C1.78843 14.8371 1.85515 14.6886 1.96198 14.571L3.76948 12.573C3.7433 12.1914 3.7433 11.8086 3.76948 11.427L1.96198 9.429C1.85515 9.31139 1.78843 9.16288 1.77145 9.0049C1.75446 8.84693 1.78809 8.68763 1.86748 8.55L3.94648 4.95C4.02577 4.81256 4.14662 4.70381 4.29163 4.63939C4.43663 4.57497 4.59834 4.55821 4.75348 4.5915L7.38598 5.16C7.70398 4.9455 8.03698 4.752 8.38348 4.5825L9.20848 2.0205C9.25691 1.86982 9.35177 1.73832 9.47948 1.64482C9.60719 1.55133 9.76121 1.50064 9.91948 1.5H14.0775H14.079ZM13.53 3H10.47L9.61798 5.6505L9.04348 5.931C8.76106 6.06921 8.48842 6.22657 8.22748 6.402L7.69648 6.762L4.97248 6.174L3.44248 8.826L5.30998 10.893L5.26498 11.529C5.24343 11.8426 5.24343 12.1574 5.26498 12.471L5.30998 13.107L3.43948 15.174L4.97098 17.826L7.69498 17.2395L8.22598 17.598C8.48692 17.7734 8.75956 17.9308 9.04198 18.069L9.61648 18.3495L10.47 21H13.533L14.388 18.348L14.961 18.069C15.2431 17.9311 15.5153 17.7737 15.7755 17.598L16.305 17.2395L19.0305 17.826L20.5605 15.174L18.6915 13.107L18.7365 12.471C18.7581 12.1569 18.7581 11.8416 18.7365 11.5275L18.6915 10.8915L20.562 8.826L19.0305 6.174L16.305 6.759L15.7755 6.402C15.5153 6.22622 15.2431 6.06884 14.961 5.931L14.388 5.652L13.5315 3H13.53ZM12 7.5C13.1935 7.5 14.338 7.97411 15.182 8.81802C16.0259 9.66193 16.5 10.8065 16.5 12C16.5 13.1935 16.0259 14.3381 15.182 15.182C14.338 16.0259 13.1935 16.5 12 16.5C10.8065 16.5 9.66191 16.0259 8.818 15.182C7.97409 14.3381 7.49998 13.1935 7.49998 12C7.49998 10.8065 7.97409 9.66193 8.818 8.81802C9.66191 7.97411 10.8065 7.5 12 7.5ZM12 9C11.2043 9 10.4413 9.31607 9.87866 9.87868C9.31605 10.4413 8.99998 11.2044 8.99998 12C8.99998 12.7956 9.31605 13.5587 9.87866 14.1213C10.4413 14.6839 11.2043 15 12 15C12.7956 15 13.5587 14.6839 14.1213 14.1213C14.6839 13.5587 15 12.7956 15 12C15 11.2044 14.6839 10.4413 14.1213 9.87868C13.5587 9.31607 12.7956 9 12 9Z" fill="black"/>
</svg>
