<svg width="16" height="15" viewBox="0 0 16 15" fill="none" xmlns="http://www.w3.org/2000/svg">
<path d="M16 1.9617C16 1.44142 15.7893 0.942456 15.4142 0.574567C15.0391 0.206678 14.5304 0 14 0L2 0C1.46957 0 0.960859 0.206678 0.585786 0.574567C0.210714 0.942456 0 1.44142 0 1.9617L0 9.80848C0 10.3288 0.210714 10.8277 0.585786 11.1956C0.960859 11.5635 1.46957 11.7702 2 11.7702H11.586C11.8512 11.7702 12.1055 11.8736 12.293 12.0576L15.146 14.8559C15.2159 14.9246 15.3049 14.9715 15.402 14.9905C15.499 15.0095 15.5996 14.9999 15.691 14.9628C15.7824 14.9257 15.8606 14.8629 15.9156 14.7822C15.9706 14.7016 16 14.6067 16 14.5097V1.9617ZM7.194 4.67472C7.281 4.79634 7.357 4.92974 7.421 5.06804C7.849 5.99788 7.814 7.39951 6.479 8.70306C6.39752 8.78096 6.28876 8.82537 6.17499 8.82719C6.06121 8.82901 5.95104 8.78812 5.867 8.71287C5.82603 8.67647 5.79308 8.63222 5.7702 8.58286C5.74732 8.5335 5.73499 8.48007 5.73396 8.42585C5.73293 8.37164 5.74322 8.31779 5.76421 8.26763C5.7852 8.21746 5.81644 8.17204 5.856 8.13417C5.97765 8.0157 6.08532 7.89731 6.18021 7.77961C6.38547 7.52499 6.06206 7.19256 5.735 7.19256C4.775 7.19256 4 6.46084 4 5.55846C4 4.65608 4.776 3.92339 5.734 3.92339C6.005 3.92339 6.262 3.98224 6.49 4.08621L6.498 4.09013C6.667 4.15879 6.825 4.26865 6.967 4.40793C7.052 4.48934 7.128 4.5786 7.194 4.67472ZM11.0002 6.93754C11.0001 6.93754 11 6.93756 10.9999 6.93762C10.7309 7.09941 10.4119 7.19256 10.07 7.19256C9.112 7.19256 8.335 6.46084 8.335 5.55846C8.335 4.65608 9.112 3.92339 10.069 3.92339C10.34 3.92339 10.597 3.98224 10.825 4.08621L10.833 4.09013C11.003 4.15879 11.16 4.26865 11.302 4.40793C11.387 4.48934 11.463 4.5786 11.529 4.67472C11.616 4.79634 11.693 4.92974 11.757 5.06804C12.185 5.99788 12.149 7.39951 10.815 8.70306C10.7335 8.78125 10.6245 8.82583 10.5105 8.82765C10.3965 8.82948 10.2861 8.7884 10.202 8.71287C10.161 8.67647 10.1281 8.63222 10.1052 8.58286C10.0823 8.5335 10.07 8.48007 10.069 8.42585C10.0679 8.37164 10.0782 8.31779 10.0992 8.26763C10.1202 8.21746 10.1514 8.17204 10.191 8.13417C10.6107 7.72642 10.8627 7.31964 11.0007 6.93832C11.0009 6.93794 11.0006 6.93754 11.0002 6.93754Z" fill="#3D3DC1"/>
</svg>
