<svg width="24" height="24" viewBox="0 0 24 24" fill="none" xmlns="http://www.w3.org/2000/svg">
<path fill="#3D3DC1" d="M10.7813 12C10.7813 12.3232 10.9097 12.6332 11.1382 12.8618C11.3668 13.0903 11.6768 13.2188 12 13.2188C12.3233 13.2188 12.6332 13.0903 12.8618 12.8618C13.0904 12.6332 13.2188 12.3232 13.2188 12C13.2188 11.6768 13.0904 11.3668 12.8618 11.1382C12.6332 10.9097 12.3233 10.7812 12 10.7812C11.6768 10.7812 11.3668 10.9097 11.1382 11.1382C10.9097 11.3668 10.7813 11.6768 10.7813 12ZM15.8594 12C15.8594 12.3232 15.9878 12.6332 16.2164 12.8618C16.4449 13.0903 16.7549 13.2188 17.0781 13.2188C17.4014 13.2188 17.7114 13.0903 17.9399 12.8618C18.1685 12.6332 18.2969 12.3232 18.2969 12C18.2969 11.6768 18.1685 11.3668 17.9399 11.1382C17.7114 10.9097 17.4014 10.7812 17.0781 10.7812C16.7549 10.7812 16.4449 10.9097 16.2164 11.1382C15.9878 11.3668 15.8594 11.6768 15.8594 12ZM5.70315 12C5.70315 12.3232 5.83155 12.6332 6.06011 12.8618C6.28867 13.0903 6.59866 13.2188 6.9219 13.2188C7.24513 13.2188 7.55512 13.0903 7.78368 12.8618C8.01224 12.6332 8.14065 12.3232 8.14065 12C8.14065 11.6768 8.01224 11.3668 7.78368 11.1382C7.55512 10.9097 7.24513 10.7812 6.9219 10.7812C6.59866 10.7812 6.28867 10.9097 6.06011 11.1382C5.83155 11.3668 5.70315 11.6768 5.70315 12ZM22.4914 7.59219C21.9176 6.22871 21.0949 5.00488 20.0463 3.95371C19.005 2.90862 17.7689 2.07791 16.4078 1.50859C15.0114 0.92207 13.5285 0.625 12 0.625H11.9492C10.4106 0.632617 8.92014 0.937305 7.51858 1.53652C6.16921 2.11168 4.94464 2.94387 3.91311 3.98672C2.87463 5.03535 2.05959 6.2541 1.49592 7.6125C0.911936 9.01914 0.617405 10.5146 0.625022 12.0533C0.633638 13.8166 1.0508 15.5539 1.84377 17.1289V20.9883C1.84377 21.298 1.96683 21.5951 2.18586 21.8142C2.4049 22.0332 2.70198 22.1562 3.01174 22.1562H6.87366C8.44862 22.9492 10.1859 23.3664 11.9492 23.375H12.0026C13.5235 23.375 14.9987 23.0805 16.3875 22.5041C17.7417 21.9416 18.9732 21.1205 20.0133 20.0869C21.0619 19.0484 21.8871 17.8348 22.4635 16.4814C23.0627 15.0799 23.3674 13.5895 23.375 12.0508C23.3826 10.5045 23.083 9.00391 22.4914 7.59219ZM18.6549 18.7133C16.875 20.4754 14.5137 21.4453 12 21.4453H11.9569C10.4258 21.4377 8.90491 21.0568 7.56174 20.3408L7.34846 20.2266H3.77346V16.6516L3.6592 16.4383C2.94319 15.0951 2.56233 13.5742 2.55471 12.0432C2.54455 9.51172 3.51194 7.13516 5.28674 5.34512C7.05901 3.55508 9.42795 2.56484 11.9594 2.55469H12.0026C13.2721 2.55469 14.5035 2.80098 15.6639 3.28848C16.7963 3.76328 17.8119 4.44629 18.6854 5.31973C19.5563 6.19062 20.2418 7.20879 20.7166 8.34121C21.2092 9.51426 21.4555 10.7584 21.4504 12.0432C21.4352 14.5721 20.4424 16.941 18.6549 18.7133Z"/>
</svg>
