<svg width="17" height="15" viewBox="0 0 17 15" fill="none" xmlns="http://www.w3.org/2000/svg">
<path d="M6.37504 14.8752H12.75C13.338 14.8752 13.8409 14.521 14.0534 14.011L16.1925 9.01725C16.2563 8.85433 16.2917 8.68433 16.2917 8.50016V7.0835C16.2917 6.30433 15.6542 5.66683 14.875 5.66683H10.4055L11.0784 2.42975L11.0996 2.20308C11.0996 1.91266 10.9792 1.6435 10.788 1.45225L10.0371 0.708496L5.36921 5.37641C5.11421 5.63141 4.95837 5.98558 4.95837 6.37516V13.4585C4.95837 14.2377 5.59587 14.8752 6.37504 14.8752ZM6.37504 6.37516L9.44921 3.301L8.50004 7.0835H14.875V8.50016L12.75 13.4585H6.37504V6.37516ZM0.708374 6.37516H3.54171V14.8752H0.708374V6.37516Z" fill="#5BB380"/>
</svg>
